Coordinates
version=1
nRows=23
nColumns=38
inDegrees=no

Units are S.I. units (second, meters, Newtons, ...)
If the header above contains a line with 'inDegrees', this indicates whether rotational values are in degrees (yes) or radians (no).

endheader
time	pelvis_tilt	pelvis_list	pelvis_rotation	pelvis_tx	pelvis_ty	pelvis_tz	hip_flexion_r	hip_adduction_r	hip_rotation_r	knee_angle_r	ankle_angle_r	subtalar_angle_r	mtp_angle_r	hip_flexion_l	hip_adduction_l	hip_rotation_l	knee_angle_l	ankle_angle_l	subtalar_angle_l	mtp_angle_l	lumbar_extension	lumbar_bending	lumbar_rotation	arm_flex_r	arm_add_r	arm_rot_r	elbow_flex_r	pro_sup_r	wrist_flex_r	wrist_dev_r	arm_flex_l	arm_add_l	arm_rot_l	elbow_flex_l	pro_sup_l	wrist_flex_l	wrist_dev_l
0.99	2.87345	1.47286	-1.22355	0.596623	0.883922	0.934443	0.437505	-0.0514525	-0.291282	0.167093	0.188243	0	0	-0.370717	0.0245969	-0.109288	0.218766	0.371358	0	0	-0.226892	-0.0515687	-0.189136	-0.0590558	-0.0662188	-0.121834	0.309058	1.44112	0	0	-0.0410495	-0.444926	0.694042	0.7612	0.805816	0	0
1	2.86705	1.47208	-1.21177	0.597509	0.897867	0.932806	0.431734	-0.0487606	-0.289892	0.156116	0.18705	0	0	-0.377601	0.017138	-0.11179	0.237455	0.374143	0	0	-0.227897	-0.0498194	-0.195315	-0.0590839	-0.0657016	-0.118185	0.307611	1.44221	0	0	-0.0439099	-0.44747	0.696296	0.761673	0.806803	0	0
1.01	2.85896	1.47078	-1.19696	0.598302	0.912131	0.931274	0.426329	-0.0468465	-0.288832	0.154058	0.185588	0	0	-0.38329	0.00821308	-0.112803	0.259604	0.376165	0	0	-0.228855	-0.0473144	-0.202964	-0.0599096	-0.0658433	-0.114521	0.306634	1.44331	0	0	-0.0469991	-0.44979	0.700354	0.760804	0.807397	0	0
1.02	2.85389	1.46975	-1.18446	0.598938	0.92669	0.929782	0.423095	-0.0467294	-0.289639	0.16299	0.184525	0	0	-0.387592	-0.000801341	-0.112287	0.28403	0.376295	0	0	-0.229016	-0.0447218	-0.211597	-0.0618061	-0.0668335	-0.110738	0.306582	1.44373	0	0	-0.0500285	-0.451367	0.706167	0.757904	0.806951	0	0
1.03	2.85107	1.46937	-1.17362	0.599432	0.941571	0.92833	0.421556	-0.0480314	-0.291904	0.181046	0.183427	0	0	-0.39017	-0.00969292	-0.110508	0.310547	0.374058	0	0	-0.228006	-0.0421273	-0.220945	-0.0647997	-0.0689064	-0.106166	0.307484	1.44428	0	0	-0.0530665	-0.451843	0.713304	0.752664	0.80521	0	0
1.04	2.84871	1.4698	-1.16253	0.599819	0.956871	0.926919	0.42126	-0.0503115	-0.294734	0.206934	0.182229	0	0	-0.390787	-0.0186306	-0.107862	0.339148	0.369027	0	0	-0.225316	-0.0395654	-0.231033	-0.0691994	-0.0716069	-0.101427	0.309118	1.44532	0	0	-0.0563206	-0.451391	0.722267	0.74533	0.802028	0	0
1.05	2.84264	1.47093	-1.14687	0.600117	0.972583	0.925532	0.420848	-0.0525497	-0.298209	0.235998	0.179214	0	0	-0.388858	-0.0280739	-0.103915	0.370694	0.360963	0	0	-0.220736	-0.0366265	-0.241966	-0.0749319	-0.0744858	-0.097612	0.311002	1.44585	0	0	-0.0598229	-0.450124	0.733226	0.736038	0.797445	0	0
1.06	2.82568	1.4725	-1.11972	0.60046	0.98868	0.924182	0.418774	-0.0530538	-0.30255	0.260022	0.168969	0	0	-0.383552	-0.038974	-0.0996796	0.40646	0.349588	0	0	-0.214218	-0.0327628	-0.253078	-0.0812625	-0.077411	-0.0946673	0.311672	1.4454	0	0	-0.0634145	-0.447909	0.745783	0.724511	0.791772	0	0
1.07	2.78153	1.47394	-1.06506	0.600937	1.00476	0.92302	0.416012	-0.0505043	-0.309662	0.27453	0.139325	0	0	-0.372748	-0.0532176	-0.096469	0.449055	0.334435	0	0	-0.206373	-0.0263418	-0.263329	-0.0874905	-0.0808058	-0.0902597	0.312001	1.44309	0	0	-0.0648263	-0.444406	0.762303	0.709175	0.782397	0	0
1.08	2.7161	1.47326	-0.992821	0.601884	1.0204	0.922474	0.413743	-0.0441639	-0.313183	0.28483	0.088917	0	0	-0.359026	-0.0691193	-0.0955462	0.495962	0.312235	0	0	-0.200723	-0.0174979	-0.268746	-0.0920907	-0.0846218	-0.0837309	0.312877	1.44053	0	0	-0.0637603	-0.439148	0.776568	0.691474	0.773305	0	0
1.09	2.62498	1.47158	-0.90027	0.603313	1.03539	0.922563	0.419352	-0.0365599	-0.314748	0.30928	0.0458416	0	0	-0.33898	-0.0856976	-0.0970674	0.549842	0.281992	0	0	-0.196004	-0.00644266	-0.268535	-0.0952027	-0.0889667	-0.0731426	0.315823	1.43801	0	0	-0.0594855	-0.432852	0.79236	0.672142	0.762313	0	0
1.1	2.51964	1.47142	-0.798277	0.604986	1.04997	0.922986	0.435699	-0.0312235	-0.3135	0.353656	0.0311499	0	0	-0.310313	-0.0996915	-0.0982272	0.611083	0.24244	0	0	-0.189194	0.00394139	-0.264532	-0.0983891	-0.0945547	-0.056034	0.323158	1.4252	0	0	-0.0543875	-0.426479	0.811	0.654181	0.740184	0	0
1.11	2.43753	1.47047	-0.720689	0.606486	1.06444	0.923795	0.451992	-0.0279946	-0.308612	0.403975	0.0327162	0	0	-0.278827	-0.11018	-0.095284	0.676326	0.193402	0	0	-0.18427	0.0128924	-0.261279	-0.100036	-0.0997931	-0.0411248	0.330072	1.4116	0	0	-0.0521138	-0.420667	0.823387	0.641672	0.718373	0	0
1.12	2.37866	1.4688	-0.664532	0.607702	1.07884	0.924734	0.463029	-0.0254588	-0.304021	0.448077	0.033683	0	0	-0.244635	-0.118977	-0.0880593	0.745107	0.138777	0	0	-0.180832	0.021041	-0.261095	-0.10145	-0.10473	-0.025717	0.336791	1.39973	0	0	-0.0523963	-0.416915	0.832746	0.636726	0.693544	0	0
1.13	2.34027	1.46572	-0.627063	0.608819	1.09309	0.925774	0.465674	-0.0215875	-0.302006	0.479562	0.0288935	0	0	-0.209405	-0.127514	-0.0780707	0.815028	0.0811232	0	0	-0.17967	0.029309	-0.262583	-0.101676	-0.108157	-0.0168232	0.340304	1.39494	0	0	-0.0539023	-0.415104	0.836457	0.638624	0.677007	0	0
1.14	2.28985	1.46408	-0.577173	0.610121	1.10704	0.926468	0.465743	-0.0165933	-0.302662	0.500961	0.0242881	0	0	-0.168525	-0.135825	-0.0674612	0.886751	0.0207167	0	0	-0.17612	0.0367431	-0.263815	-0.103016	-0.11091	-0.00877698	0.344447	1.3897	0	0	-0.0554823	-0.415374	0.840195	0.645227	0.658509	0	0
1.15	2.23283	1.46302	-0.521434	0.611683	1.12067	0.926991	0.461895	-0.0100285	-0.306072	0.511978	0.0228202	0	0	-0.125077	-0.144	-0.0584562	0.956479	-0.0422284	0	0	-0.17137	0.0431467	-0.262991	-0.105573	-0.1134	-0.00100225	0.350344	1.38319	0	0	-0.0557154	-0.417245	0.845664	0.65381	0.640135	0	0
1.16	2.17986	1.46276	-0.470917	0.61338	1.13397	0.92755	0.454306	-0.00299086	-0.310374	0.514873	0.0237761	0	0	-0.0818548	-0.150674	-0.0517242	1.02018	-0.107403	0	0	-0.166395	0.0475387	-0.259743	-0.109334	-0.115877	0.00706195	0.358459	1.37611	0	0	-0.0535895	-0.419772	0.853127	0.661454	0.62512	0	0
1.17	2.13899	1.46331	-0.433885	0.615143	1.14699	0.928329	0.443851	0.00396258	-0.312479	0.513129	0.0255925	0	0	-0.0415304	-0.155048	-0.0470766	1.07545	-0.172101	0	0	-0.16242	0.0495561	-0.254261	-0.113521	-0.118674	0.0144915	0.368609	1.37114	0	0	-0.0494509	-0.422212	0.859933	0.667115	0.616809	0	0
1.18	2.1148	1.4638	-0.414666	0.616874	1.1598	0.929537	0.430686	0.0111618	-0.311517	0.509499	0.027935	0	0	-0.00593342	-0.156968	-0.0429178	1.12272	-0.230283	0	0	-0.16057	0.0502102	-0.247616	-0.117109	-0.121898	0.0212034	0.380237	1.36639	0	0	-0.0443583	-0.424079	0.865033	0.670517	0.613658	0	0
1.19	2.10609	1.46401	-0.412008	0.618545	1.17239	0.931282	0.416261	0.0187484	-0.306253	0.506336	0.0303207	0	0	0.0261185	-0.156076	-0.0375542	1.16671	-0.265812	0	0	-0.16105	0.0501523	-0.240054	-0.118977	-0.124923	0.0265139	0.390563	1.35998	0	0	-0.0385572	-0.425081	0.867176	0.672107	0.615179	0	0
1.2	2.10639	1.46403	-0.4194	0.620148	1.18473	0.933484	0.401374	0.0271085	-0.295658	0.503523	0.0327041	0	0	0.0572218	-0.15339	-0.0315964	1.21098	-0.266056	0	0	-0.163169	0.0499178	-0.231466	-0.120226	-0.129399	0.0388418	0.402404	1.34132	0	0	-0.032885	-0.424351	0.86352	0.671579	0.627606	0	0
1.21	2.12551	1.46444	-0.446507	0.621705	1.19696	0.936099	0.384486	0.0345602	-0.282359	0.500674	0.036655	0	0	0.0862369	-0.149189	-0.0274572	1.25183	-0.242064	0	0	-0.167099	0.0483322	-0.222572	-0.119144	-0.133753	0.0544044	0.409892	1.31932	0	0	-0.0285508	-0.422652	0.853389	0.671306	0.648786	0	0
